<svg width="250" height="223" viewBox="0 0 250 223" fill="none" xmlns="http://www.w3.org/2000/svg">
<path d="M46.9212 209.75C14.9324 191.193 -17.4119 142.658 23.4627 94.8378C35.5474 77.7081 73.9341 66.4702 94.1936 65.2177C238.499 56.2959 254.849 141.588 207.576 195.475C162.437 234.017 84.2416 225.095 46.9212 209.75Z" fill="#881337"/>
<path d="M27.0945 102.025C27.0945 102.025 -19.1767 3.36047 9.21694 0.071645C32.3525 -2.55942 97.5528 68.1504 97.5528 68.1504C97.5528 68.1504 35.1569 106.301 27.0945 102.025Z" fill="#881337"/>
<path d="M154.691 70.7814C154.691 70.7814 183.084 36.9065 219.891 15.5291C256.698 -5.84823 252.491 18.1602 244.779 45.4575C235.665 76.3724 214.984 110.576 214.984 110.576C214.984 110.576 161.702 82.9501 154.691 68.1504" fill="#881337"/>
<path d="M95.0991 65.8482C90.1916 66.1771 85.6345 66.8348 81.0775 67.8215C74.7678 68.8081 68.8087 70.1237 63.5506 71.7681" stroke="#1B1C1E" stroke-miterlimit="10"/>
<path d="M121.039 203.65C121.039 203.65 126.297 207.268 135.411 206.939C144.525 206.61 147.68 202.334 147.68 202.334C147.68 202.334 142.422 191.81 134.009 190.823C125.596 189.508 121.039 203.65 121.039 203.65Z" fill="#B8BDC4"/>
<path d="M97.2023 153.66C104.564 152.015 108.77 144.78 106.316 138.202C103.863 131.296 98.955 123.403 89.1399 120.114C79.3248 117.154 70.2108 118.469 63.9011 120.443C57.5914 122.416 53.7354 128.665 55.4881 134.914C57.2408 140.833 61.7979 147.74 71.613 152.015C80.3764 155.633 89.841 154.975 97.2023 153.66Z" fill="#B4D3CD"/>
<path d="M166.259 150.042C157.495 149.384 152.237 140.504 155.742 133.269C159.248 126.034 165.908 118.14 176.775 115.838C184.837 114.194 191.147 114.523 195.704 115.838C203.416 117.812 207.272 126.362 203.416 132.94C200.611 137.873 195.704 143.464 187.992 146.753C180.28 150.042 172.568 150.7 166.259 150.042Z" fill="#B4D3CD"/>
<path d="M85.6345 148.398C88.7321 148.398 91.2431 143.244 91.2431 136.887C91.2431 130.53 88.7321 125.376 85.6345 125.376C82.5369 125.376 80.0258 130.53 80.0258 136.887C80.0258 143.244 82.5369 148.398 85.6345 148.398Z" fill="#1B1C1E"/>
<path d="M175.723 144.78C178.821 144.78 181.332 139.626 181.332 133.269C181.332 126.912 178.821 121.758 175.723 121.758C172.626 121.758 170.114 126.912 170.114 133.269C170.114 139.626 172.626 144.78 175.723 144.78Z" fill="#1B1C1E"/>
<path d="M134.36 185.561V192.139C134.36 192.139 133.658 195.428 124.895 202.992C119.286 208.254 101.759 213.845 94.7486 202.006C87.7378 190.166 102.46 173.393 121.74 173.393C141.02 173.393 134.36 185.561 134.36 185.561Z" fill="#B8BDC4"/>
<path d="M134.36 192.139C134.36 192.139 140.319 199.046 144.525 201.677C147.68 203.65 156.794 210.885 164.856 207.268C173.269 203.979 175.723 192.468 171.867 184.904C168.011 177.339 156.444 171.748 145.927 173.393C135.411 174.708 133.308 179.97 134.36 192.139Z" fill="#B8BDC4"/>
<path d="M134.359 185.561C134.359 185.561 119.637 178.984 118.235 172.406C116.833 165.829 130.854 163.855 139.968 165.5C151.536 167.144 153.639 175.366 134.359 185.561Z" fill="#1B1C1E"/>
<path d="M219.54 102.354C216.736 98.7364 213.581 95.1187 209.725 91.8298C204.818 87.5543 199.56 83.6078 192.899 79.9901" stroke="#1B1C1E" stroke-miterlimit="10"/>
</svg>
